# xmcd
#
# Track frame offsets:
# 150
# 21632
# 50469
# 70699
# 90711
# 113231
# 133005
# 141957
# 159407
# 180949
# 198164
# 217635
#
# Disc length: 3224 seconds
#
#
# Revision: 4
# Processed by: cddbd v1.5.1PL2 Copyright (c) Steve Scherf et al.
# Submitted via: FreeRIP 2.945 
#
DISCID=a00c960c
DTITLE=Radiohead - OK Computer
DYEAR=1997
DGENRE=Rock
TTITLE0=AirBag
TTITLE1=Paranoid Android
TTITLE2=Subterrean Homesick Alien
TTITLE3=Exit Music (For a Film)
TTITLE4=Let Down
TTITLE5=Karma Police
TTITLE6=Fitter Happier
TTITLE7=Electioneering
TTITLE8=Climbing up the Walls
TTITLE9=No Surprises
TTITLE10=Lucky
TTITLE11=The Tourist
EXTD=
EXTT0=
EXTT1=
EXTT2=
EXTT3=
EXTT4=
EXTT5=
EXTT6=
EXTT7=
EXTT8=
EXTT9=
EXTT10=
EXTT11=
PLAYORDER=
